<svg width="41" height="41" viewBox="0 0 41 41" fill="none" xmlns="http://www.w3.org/2000/svg">
<path d="M9.85882 9.53921L5.65369 17.41C5.12892 18.3951 4.86597 19.4762 4.86597 20.5587C4.86597 21.6414 5.12892 22.7224 5.65369 23.7074L9.85882 31.5784C10.6339 33.0322 12.1497 33.9402 13.7992 33.9402H18.2658V31.7105H18.2644C17.4403 31.7105 16.6824 31.2572 16.2948 30.5304L12.0913 22.6579C11.74 22.0017 11.5649 21.281 11.5649 20.5587C11.5649 19.8364 11.74 19.1158 12.0913 18.4597L16.2948 10.5873C16.6824 9.86028 17.4403 9.40709 18.2644 9.40709H18.2658V7.17725H13.7992C12.1497 7.17725 10.6339 8.08541 9.85882 9.53921Z" fill="black"/>
<path d="M35.3423 17.4101L31.1374 9.53927C30.3621 8.0853 28.8465 7.1773 27.197 7.1773H22.7302V9.40698H22.7318C23.5558 9.40698 24.3137 9.86034 24.7012 10.5872L28.9047 18.4596C29.2562 19.1158 29.4309 19.8365 29.4309 20.5588C29.4309 21.2811 29.2562 22.0017 28.9047 22.658L24.7012 30.5303C24.3137 31.2572 23.5558 31.7104 22.7318 31.7104H22.7302V33.9403H27.197C28.8465 33.9403 30.3621 33.0323 31.1374 31.5783L35.3423 23.7075C35.8669 22.7224 36.13 21.6413 36.13 20.5588C36.13 19.4763 35.8669 18.3952 35.3423 17.4101Z" fill="black"/>
</svg>
