<svg width="24" height="24" viewBox="0 0 24 24" fill="none" xmlns="http://www.w3.org/2000/svg">
<path d="M11.9998 5.53754C13.1838 5.53754 14.1526 6.50629 14.1526 7.69032C14.1526 8.87435 13.1838 9.8431 11.9998 9.8431C10.8158 9.8431 9.847 8.87435 9.847 7.69032C9.847 6.50629 10.8158 5.53754 11.9998 5.53754ZM11.9998 15.225C14.906 15.225 18.2428 16.6136 18.4581 17.3778V18.4542H5.54145V17.3886C5.75673 16.6136 9.09353 15.225 11.9998 15.225ZM11.9998 3.38477C9.62096 3.38477 7.69423 5.3115 7.69423 7.69032C7.69423 10.0691 9.62096 11.9959 11.9998 11.9959C14.3786 11.9959 16.3053 10.0691 16.3053 7.69032C16.3053 5.3115 14.3786 3.38477 11.9998 3.38477ZM11.9998 13.0723C9.12582 13.0723 3.38867 14.5146 3.38867 17.3778V20.607H20.6109V17.3778C20.6109 14.5146 14.8737 13.0723 11.9998 13.0723Z" fill="#18BA51"/>
</svg>
