<svg width="24" height="24" viewBox="0 0 24 24" fill="none" xmlns="http://www.w3.org/2000/svg">
<path d="M11.9998 5.54145C13.1838 5.54145 14.1526 6.5102 14.1526 7.69423C14.1526 8.87825 13.1838 9.847 11.9998 9.847C10.8158 9.847 9.847 8.87825 9.847 7.69423C9.847 6.5102 10.8158 5.54145 11.9998 5.54145ZM11.9998 15.2289C14.906 15.2289 18.2428 16.6175 18.4581 17.3817V18.4581H5.54145V17.3925C5.75673 16.6175 9.09353 15.2289 11.9998 15.2289ZM11.9998 3.38867C9.62096 3.38867 7.69423 5.31541 7.69423 7.69423C7.69423 10.073 9.62096 11.9998 11.9998 11.9998C14.3786 11.9998 16.3053 10.073 16.3053 7.69423C16.3053 5.31541 14.3786 3.38867 11.9998 3.38867ZM11.9998 13.0762C9.12582 13.0762 3.38867 14.5185 3.38867 17.3817V20.6109H20.6109V17.3817C20.6109 14.5185 14.8737 13.0762 11.9998 13.0762Z" fill="black"/>
</svg>
